<svg width="64" height="64" viewBox="0 0 64 64" fill="none" xmlns="http://www.w3.org/2000/svg">
<rect width="64" height="64" rx="32" fill="#D3DBE8"/>
<path d="M47 30.6203V32.0003C46.9982 35.2349 45.9508 38.3823 44.014 40.973C42.0773 43.5637 39.3549 45.459 36.253 46.3761C33.1511 47.2933 29.8359 47.1831 26.8017 46.0622C23.7675 44.9412 21.177 42.8694 19.4164 40.1559C17.6559 37.4423 16.8197 34.2324 17.0325 31.0048C17.2453 27.7771 18.4958 24.7048 20.5974 22.2459C22.699 19.787 25.5392 18.0734 28.6943 17.3605C31.8494 16.6476 35.1504 16.9738 38.105 18.2903" stroke="#234F8D" stroke-width="3.1875" stroke-linecap="round" stroke-linejoin="round"/>
<path d="M47.001 20L32.001 35.015L27.501 30.515" stroke="#234F8D" stroke-width="3.1875" stroke-linecap="round" stroke-linejoin="round"/>
</svg>
