<svg width="40" height="40" viewBox="0 0 40 40" fill="none" xmlns="http://www.w3.org/2000/svg">
<path d="M31.4908 8.50957C28.4433 5.46207 24.31 3.75 20.0002 3.75C15.6904 3.75 11.5571 5.46207 8.50957 8.50957C5.46207 11.5571 3.75 15.6904 3.75 20.0002C3.75 24.31 5.46207 28.4433 8.50957 31.4908C11.5571 34.5383 15.6904 36.2504 20.0002 36.2504C24.31 36.2504 28.4433 34.5383 31.4908 31.4908C34.5383 28.4433 36.2504 24.31 36.2504 20.0002C36.2504 15.6904 34.5383 11.5571 31.4908 8.50957ZM29.7236 10.2783C30.3646 10.922 30.9403 11.6275 31.4424 12.3846L26.1799 18.5939L21.8174 6.37207C24.8125 6.76331 27.5931 8.13715 29.7236 10.2783ZM24.3111 20.7814L21.4736 24.1205L17.1627 23.3393L15.6893 19.2189L18.5268 15.8799L22.8377 16.6611L24.3111 20.7814ZM10.2768 10.2783C12.6375 7.90476 15.7883 6.48172 19.1299 6.27988L21.8658 13.9361L9.10957 11.6127C9.46953 11.1433 9.8594 10.6975 10.2768 10.2783ZM7.28926 25.2408C6.54749 23.4294 6.19915 21.4811 6.2673 19.5249C6.33545 17.5687 6.81854 15.6493 7.68457 13.8939L15.6861 15.3549L7.28926 25.2408ZM10.2768 29.7221C9.63581 29.0784 9.06009 28.3728 8.55801 27.6158L13.8205 21.4064L18.183 33.6221C15.1887 33.2325 12.4081 31.8609 10.2768 29.7221ZM29.7236 29.7221C27.3629 32.0956 24.2121 33.5187 20.8705 33.7205L18.1346 26.0643L30.8908 28.3939C30.5307 28.8612 30.1408 29.3049 29.7236 29.7221ZM24.3143 24.6455L32.7111 14.7596C33.4529 16.571 33.8012 18.5193 33.7331 20.4755C33.6649 22.4317 33.1818 24.3511 32.3158 26.1064L24.3143 24.6455Z" fill="#FF6634"/>
</svg>
