<svg width="91" height="36" viewBox="0 0 91 36" fill="none" xmlns="http://www.w3.org/2000/svg">
<path d="M16.2544 23.5145H12.2086C12.0322 23.5145 11.8668 23.429 11.7631 23.2854L8.16098 18.2067L7.90641 17.8394C7.76822 17.6412 7.77731 17.3758 7.92823 17.1885L10.0811 14.4882C10.3084 14.2046 10.743 14.2173 10.954 14.5137L16.7017 22.6544C16.9545 23.0162 16.6963 23.5145 16.2544 23.5145Z" fill="#707070"/>
<path d="M55.0423 23.5138H52.1493C51.9329 23.5138 51.7365 23.3865 51.6492 23.1883L48.1817 15.2622C48.0071 15.2731 47.8289 15.2804 47.6507 15.2804H43.914V22.9847C43.914 23.2774 43.6704 23.5138 43.3685 23.5138H40.7174C40.4155 23.5138 40.1719 23.2774 40.1719 22.9847V11.7219C40.1719 11.42 40.4155 11.1764 40.7174 11.1764L43.9413 11.1873H47.5016C48.3344 11.1873 49.0872 10.8491 49.6327 10.3036C50.1837 9.75261 50.5219 8.99255 50.5164 8.15065C50.5055 6.48142 49.0927 5.15767 47.4234 5.15767H44.4868C44.185 5.15767 43.9413 5.40133 43.9413 5.70317V6.99965C43.9413 7.30149 43.6976 7.54515 43.3958 7.54515H40.7174C40.4155 7.54515 40.1719 7.30149 40.1719 6.99965V1.55917C40.1719 1.25733 40.4155 1.01367 40.7174 1.01367H47.6507C47.7125 1.01367 47.7744 1.01367 47.8344 1.01549C51.6874 1.11368 54.7822 4.27032 54.7822 8.14702C54.7822 10.1163 53.984 11.9001 52.693 13.1911C52.3929 13.4911 52.0656 13.7657 51.7165 14.0075L55.5423 22.7501C55.6987 23.1101 55.435 23.5138 55.0423 23.5138Z" fill="#707070"/>
<path d="M16.8106 1.61567L4.75678 15.7114V22.9684C4.75678 23.2703 4.5113 23.5139 4.21128 23.5139H0.545502C0.243657 23.5139 0 23.2703 0 22.9684V1.56113C0 1.2611 0.243657 1.01562 0.545502 1.01562H4.21128C4.5113 1.01562 4.75678 1.2611 4.75678 1.56113V8.93995L11.4283 1.09381C11.4683 1.04472 11.5301 1.01562 11.5937 1.01562H16.5342C16.8451 1.01562 17.0124 1.38111 16.8106 1.61567Z" fill="#707070"/>
<path d="M37.9686 22.8284L32.2791 1.42111C32.2154 1.18291 31.999 1.01562 31.7517 1.01562H24.8493C24.6002 1.01562 24.3838 1.18291 24.322 1.42293L18.6706 22.8302C18.5797 23.1757 18.8397 23.5139 19.1979 23.5139H22.2291C22.4709 23.5139 22.6837 23.3539 22.7528 23.123L24.5911 16.8352C24.6602 16.6024 24.873 16.4424 25.1148 16.4424H31.599C31.8481 16.4424 32.0645 16.6097 32.1263 16.8497L33.7755 23.1084C33.8374 23.3467 34.0556 23.5139 34.3029 23.5139H37.4413C37.7995 23.5139 38.0614 23.1757 37.9686 22.8284ZM30.5934 13.0421H26.1022C25.7421 13.0421 25.4803 12.7003 25.5767 12.353L27.4059 5.66512C27.6677 4.70686 29.0279 4.70686 29.2897 5.66512L31.119 12.353C31.2135 12.7003 30.9535 13.0421 30.5934 13.0421Z" fill="#707070"/>
<path d="M90.9809 22.8284L85.2913 1.42111C85.2277 1.18291 85.0113 1.01562 84.764 1.01562H77.8598C77.6125 1.01562 77.3961 1.18291 77.3325 1.42293L71.6829 22.8302C71.5901 23.1757 71.852 23.5139 72.2102 23.5139H75.2395C75.4832 23.5139 75.696 23.3539 75.7632 23.123L77.6034 16.8352C77.6725 16.6024 77.8852 16.4424 78.1271 16.4424H84.6113C84.8586 16.4424 85.0749 16.6097 85.1386 16.8497L86.786 23.1084C86.8496 23.3467 87.066 23.5139 87.3133 23.5139H90.4536C90.8118 23.5139 91.0736 23.1757 90.9809 22.8284ZM83.6039 13.0421H79.1144C78.7544 13.0421 78.4926 12.7003 78.5871 12.353L80.4164 5.66512C80.68 4.70686 82.0401 4.70686 82.302 5.66512L84.1312 12.353C84.2258 12.7003 83.9639 13.0421 83.6039 13.0421Z" fill="#707070"/>
<path d="M73.8886 1.50456L69.3155 9.96166C69.2955 9.99802 69.2737 10.0308 69.2446 10.0598L67.1208 13.9875C66.9589 14.2857 66.8753 14.6202 66.8753 14.9585V22.9682C66.8753 23.2701 66.6316 23.5137 66.3298 23.5137H63.3404C63.0386 23.5137 62.7949 23.2701 62.7949 22.9682V14.2148C62.7949 13.8765 62.8786 13.542 63.0404 13.2438L63.3823 12.6128L68.5227 3.10834H68.5245L69.5046 1.29727C69.5992 1.12271 69.7828 1.01179 69.981 1.01179L73.5777 0.986337C73.845 0.984518 74.0159 1.27 73.8886 1.50456Z" fill="#707070"/>
<path d="M62.7082 7.11925L61.0099 10.2541C60.8044 10.6341 60.2608 10.6359 60.0516 10.2577L55.2621 1.54604C55.1294 1.3042 55.304 1.00781 55.5803 1.00781H59.3098C59.508 1.00781 59.6916 1.11691 59.788 1.28965L62.7064 6.59739C62.7955 6.75922 62.7973 6.95742 62.7082 7.11925Z" fill="#707070"/>
<path d="M19.059 34.1017H18.6426V30.3613H19.059V32.1015L19.6754 32.0797L20.6318 30.3613H21.1082L20.0372 32.2415L21.1664 34.1017H20.6737L19.679 32.447L19.0572 32.4688V34.1017H19.059Z" fill="#707070"/>
<path d="M23.5586 32.2129V33.5967C23.5695 33.7294 23.6731 33.8094 23.8713 33.8349L23.8549 34.1531C23.5695 34.1531 23.3549 34.0803 23.2113 33.9367C22.8876 34.0803 22.5621 34.1531 22.2384 34.1531C21.9893 34.1531 21.8002 34.0822 21.6711 33.9422C21.542 33.8021 21.4766 33.6003 21.4766 33.3366C21.4766 33.073 21.5438 32.8802 21.6766 32.7548C21.8093 32.6311 22.0184 32.5548 22.3039 32.5257L23.1531 32.4438V32.2111C23.1531 32.0274 23.1131 31.8965 23.0349 31.8165C22.9549 31.7365 22.8476 31.6983 22.7112 31.6983C22.4221 31.6983 22.1239 31.7165 21.8148 31.7529L21.6475 31.7692L21.6311 31.4619C22.0275 31.3819 22.3785 31.3438 22.6858 31.3438C22.9931 31.3438 23.2149 31.4147 23.3531 31.5547C23.4876 31.6947 23.5586 31.9147 23.5586 32.2129ZM21.893 33.3166C21.893 33.6476 22.0293 33.8149 22.3039 33.8149C22.5494 33.8149 22.7912 33.773 23.0276 33.6912L23.1513 33.6476V32.7548L22.3512 32.8312C22.1894 32.8457 22.0712 32.893 22.0002 32.9712C21.9293 33.0493 21.893 33.1657 21.893 33.3166Z" fill="#707070"/>
<path d="M24.3574 34.1019V31.3999H24.7575V31.7671C25.0702 31.5508 25.4012 31.4089 25.7466 31.3398V31.7508C25.5957 31.7799 25.4375 31.8253 25.2739 31.8853C25.1102 31.9472 24.9847 31.9999 24.8975 32.0472L24.7629 32.1181V34.1019H24.3574Z" fill="#707070"/>
<path d="M25.9727 31.3965H26.3781L27.0546 33.7476H27.2328L27.9146 31.3965H28.3201L27.1964 35.2986H26.7909L27.1418 34.0985H26.7418L25.9727 31.3965Z" fill="#707070"/>
<path d="M30.6972 32.2129V33.5967C30.7081 33.7294 30.8118 33.8094 31.01 33.8349L30.9936 34.1531C30.7081 34.1531 30.4936 34.0803 30.3499 33.9367C30.0263 34.0803 29.7008 34.1531 29.3771 34.1531C29.128 34.1531 28.9389 34.0822 28.8098 33.9422C28.6807 33.8021 28.6152 33.6003 28.6152 33.3366C28.6152 33.073 28.6825 32.8802 28.8153 32.7548C28.948 32.6311 29.1571 32.5548 29.4426 32.5257L30.2917 32.4438V32.2111C30.2917 32.0274 30.2517 31.8965 30.1736 31.8165C30.0935 31.7365 29.9863 31.6983 29.8499 31.6983C29.5608 31.6983 29.2626 31.7165 28.9534 31.7529L28.7862 31.7692L28.7698 31.4619C29.1662 31.3819 29.5171 31.3438 29.8244 31.3438C30.1317 31.3438 30.3536 31.4147 30.4918 31.5547C30.6263 31.6947 30.6972 31.9147 30.6972 32.2129ZM29.0316 33.3166C29.0316 33.6476 29.168 33.8149 29.4426 33.8149C29.6881 33.8149 29.9299 33.773 30.1663 33.6912L30.2899 33.6476V32.7548L29.4899 32.8312C29.328 32.8457 29.2098 32.893 29.1389 32.9712C29.068 33.0493 29.0316 33.1657 29.0316 33.3166Z" fill="#707070"/>
<path d="M32.7577 30.3613H34.1142C34.4851 30.3613 34.7633 30.4377 34.9488 30.5904C35.1342 30.7432 35.227 30.985 35.227 31.3123C35.227 31.5469 35.187 31.7287 35.1052 31.8615C35.0233 31.9924 34.9051 32.096 34.7451 32.1724C35.1415 32.3088 35.3397 32.6033 35.3397 33.0525C35.3397 33.427 35.2415 33.6962 35.0433 33.858C34.8451 34.0198 34.5578 34.1017 34.1833 34.1017H32.7559V30.3613H32.7577ZM34.0978 30.7286H33.1741V32.0197H34.136C34.3669 32.0197 34.5342 31.9651 34.6415 31.8542C34.7488 31.7433 34.8015 31.5778 34.8015 31.356C34.8015 31.1341 34.7451 30.9741 34.6306 30.8741C34.5178 30.7777 34.3396 30.7286 34.0978 30.7286ZM34.1414 32.3815H33.1741V33.7325H34.1687C34.4142 33.7325 34.5997 33.6816 34.7288 33.578C34.856 33.4761 34.9215 33.2943 34.9215 33.0343C34.9215 32.8979 34.896 32.7815 34.8433 32.6888C34.7906 32.5942 34.7215 32.5288 34.636 32.4888C34.4742 32.4179 34.3105 32.3815 34.1414 32.3815Z" fill="#707070"/>
<path d="M36.0156 30.7893V30.3184H36.4211V30.7893H36.0156ZM36.0156 34.1023V31.4003H36.4211V34.1023H36.0156Z" fill="#707070"/>
<path d="M37.2344 34.101V30.2207H37.6399V34.101H37.2344Z" fill="#707070"/>
<path d="M38.4492 30.7893V30.3184H38.8547V30.7893H38.4492ZM38.4492 34.1023V31.4003H38.8547V34.1023H38.4492Z" fill="#707070"/>
<path d="M40.483 31.7056C40.0903 31.7056 39.8939 31.842 39.8939 32.1165C39.8939 32.242 39.9394 32.3311 40.0285 32.3838C40.1194 32.4366 40.323 32.4893 40.6449 32.5457C40.9649 32.602 41.1922 32.6802 41.3268 32.7802C41.4595 32.8821 41.5268 33.0712 41.5268 33.3476C41.5268 33.6239 41.4377 33.8294 41.2595 33.9585C41.0813 34.0876 40.8213 34.1531 40.4794 34.1531C40.2558 34.1531 39.9921 34.1276 39.6902 34.0767L39.5284 34.0494L39.5502 33.6985C39.9612 33.7603 40.2703 33.7912 40.4794 33.7912C40.6885 33.7912 40.8485 33.7585 40.9576 33.6912C41.0667 33.6239 41.1231 33.513 41.1231 33.3566C41.1231 33.2003 41.0758 33.093 40.9831 33.0384C40.8885 32.9821 40.6831 32.9293 40.3667 32.8784C40.0503 32.8275 39.8248 32.7548 39.6902 32.6566C39.5557 32.5584 39.4902 32.3784 39.4902 32.1165C39.4902 31.8529 39.583 31.6583 39.7684 31.5329C39.9539 31.4074 40.1848 31.3438 40.463 31.3438C40.6831 31.3438 40.9576 31.3692 41.2904 31.4201L41.4413 31.4474L41.4304 31.7929C41.0285 31.7347 40.714 31.7056 40.483 31.7056ZM40.0612 34.5222H40.4667L40.1957 35.6405H39.8448L40.0612 34.5222Z" fill="#707070"/>
<path d="M42.1465 30.7893V30.3184H42.552V30.7893H42.1465ZM42.1465 34.1023V31.4003H42.552V34.1023H42.1465Z" fill="#707070"/>
<path d="M43.7356 34.1003H43.3301V31.3983H43.7301V31.5874C44.001 31.4256 44.2629 31.3438 44.5193 31.3438C44.8538 31.3438 45.0884 31.4365 45.2211 31.6201C45.3393 31.5474 45.4939 31.4838 45.683 31.4274C45.8721 31.371 46.0394 31.3438 46.1831 31.3438C46.5431 31.3438 46.7849 31.4401 46.9104 31.6329C47.0359 31.8256 47.0977 32.1729 47.0977 32.673V34.1003H46.6922V32.6839C46.6922 32.3093 46.6558 32.0529 46.5849 31.9129C46.514 31.7729 46.3594 31.7056 46.1249 31.7056C46.0067 31.7056 45.883 31.722 45.7576 31.7565C45.6321 31.7911 45.5339 31.8238 45.4648 31.8565L45.363 31.9056C45.4103 32.0238 45.4339 32.2875 45.4339 32.6948V34.1003H45.0284V32.7057C45.0284 32.3166 44.9939 32.0529 44.9229 31.9147C44.852 31.7765 44.6993 31.7074 44.4611 31.7074C44.3465 31.7074 44.2283 31.7238 44.1065 31.7583C43.9847 31.7929 43.8938 31.8256 43.8283 31.8583L43.7374 31.9074V34.1003H43.7356Z" fill="#707070"/>
<path d="M50.3142 34.1017H49.8978V32.5288L48.7031 30.3613H49.1741L50.1032 32.1124L51.0324 30.3613H51.5034L50.3142 32.5288V34.1017Z" fill="#707070"/>
<path d="M52.6072 31.3452C53.0273 31.3452 53.3237 31.4543 53.4982 31.6743C53.6728 31.8943 53.7601 32.2507 53.7601 32.7453C53.7601 33.2399 53.6764 33.5981 53.5109 33.8218C53.3455 34.0454 53.0418 34.1563 52.6018 34.1563C52.1617 34.1563 51.8599 34.0454 51.6944 33.8218C51.529 33.5981 51.4453 33.2399 51.4453 32.7453C51.4453 32.2525 51.5344 31.8943 51.7108 31.6743C51.8908 31.4543 52.189 31.3452 52.6072 31.3452ZM51.8544 30.7451V30.2578H52.2436V30.7451H51.8544ZM52.6072 33.8036C52.9109 33.8036 53.1109 33.7254 53.2036 33.569C53.2982 33.4126 53.3437 33.1362 53.3437 32.7399C53.3437 32.3435 53.2909 32.0707 53.1873 31.9216C53.0818 31.7725 52.8891 31.6979 52.6054 31.6979C52.3218 31.6979 52.1272 31.7725 52.0217 31.9216C51.9163 32.0707 51.8617 32.3435 51.8617 32.738C51.8617 33.1326 51.909 33.409 52.0054 33.5672C52.1035 33.7254 52.3036 33.8036 52.6072 33.8036ZM52.9345 30.7451V30.2578H53.3291V30.7451H52.9345Z" fill="#707070"/>
<path d="M54.8274 34.1003H54.4219V31.3983H54.8219V31.5874C55.1147 31.4256 55.3929 31.3438 55.6602 31.3438C56.0202 31.3438 56.262 31.4419 56.3875 31.6365C56.513 31.8311 56.5748 32.1765 56.5748 32.6748V34.1022H56.1747V32.6857C56.1747 32.3111 56.1384 32.0547 56.0638 31.9147C55.9893 31.7765 55.8329 31.7074 55.5911 31.7074C55.4765 31.7074 55.3547 31.7238 55.2256 31.7583C55.0965 31.7929 55.0001 31.8256 54.931 31.8583L54.8292 31.9074V34.1003H54.8274Z" fill="#707070"/>
<path d="M59.1634 33.7658L59.3198 33.7494L59.3307 34.0676C58.9198 34.1258 58.5688 34.1549 58.2761 34.1549C57.887 34.1549 57.6106 34.0422 57.4487 33.8167C57.2869 33.5912 57.2051 33.2403 57.2051 32.7657C57.2051 31.8183 57.5815 31.3438 58.3343 31.3438C58.6979 31.3438 58.9707 31.4456 59.1507 31.6492C59.3307 31.8529 59.4216 32.1729 59.4216 32.6093L59.3998 32.9166H57.616C57.616 33.2166 57.6706 33.4367 57.7779 33.5821C57.8851 33.7276 58.0742 33.7985 58.3434 33.7985C58.6125 33.7967 58.8852 33.7858 59.1634 33.7658ZM59.018 32.5911C59.018 32.2602 58.9652 32.0256 58.8579 31.8893C58.7525 31.7529 58.5779 31.6838 58.3397 31.6838C58.0997 31.6838 57.9197 31.7565 57.7997 31.9002C57.6797 32.0438 57.616 32.2747 57.6124 32.5929H59.018V32.5911Z" fill="#707070"/>
<path d="M61.4369 31.7486H60.5768V33.0414C60.5768 33.3505 60.5986 33.5542 60.6441 33.6524C60.6895 33.7506 60.7968 33.7979 60.9659 33.7979L61.4478 33.7651L61.4751 34.0997C61.2332 34.1397 61.0496 34.1597 60.9241 34.1597C60.6423 34.1597 60.4477 34.0906 60.3404 33.9542C60.2331 33.8179 60.1786 33.556 60.1786 33.1705V31.7486H59.7949V31.3977H60.1786V30.5703H60.5786V31.3977H61.4387V31.7486H61.4369Z" fill="#707070"/>
<path d="M61.9355 30.7893V30.3184H62.341V30.7893H61.9355ZM61.9355 34.1023V31.4003H62.341V34.1023H61.9355Z" fill="#707070"/>
<path d="M63.5246 34.1003H63.1191V31.3983H63.5192V31.5874C63.7901 31.4256 64.052 31.3438 64.3083 31.3438C64.6429 31.3438 64.8775 31.4365 65.0102 31.6201C65.1284 31.5474 65.283 31.4838 65.4721 31.4274C65.6612 31.371 65.8285 31.3438 65.9721 31.3438C66.3321 31.3438 66.574 31.4401 66.6995 31.6329C66.8249 31.8256 66.8867 32.1729 66.8867 32.673V34.1003H66.4813V32.6839C66.4813 32.3093 66.4449 32.0529 66.374 31.9129C66.3031 31.7729 66.1485 31.7056 65.9139 31.7056C65.7957 31.7056 65.6721 31.722 65.5466 31.7565C65.4212 31.7911 65.323 31.8238 65.2539 31.8565L65.1521 31.9056C65.1993 32.0238 65.223 32.2875 65.223 32.6948V34.1003H64.8175V32.7057C64.8175 32.3166 64.7829 32.0529 64.712 31.9147C64.6411 31.7765 64.4884 31.7074 64.2502 31.7074C64.1356 31.7074 64.0174 31.7238 63.8956 31.7583C63.7737 31.7929 63.6828 31.8256 63.6174 31.8583L63.5265 31.9074V34.1003H63.5246Z" fill="#707070"/>
<path d="M69.9301 30.67C69.39 30.67 69.1191 30.8737 69.1191 31.281C69.1191 31.5083 69.1809 31.6647 69.3064 31.7483C69.4319 31.832 69.6828 31.9174 70.0628 32.0029C70.4429 32.0884 70.712 32.1975 70.8702 32.332C71.0284 32.4666 71.1084 32.6902 71.1084 32.9993C71.1084 33.7667 70.7102 34.1503 69.9137 34.1503C69.6501 34.1503 69.321 34.1194 68.9246 34.0576L68.73 34.0303L68.7736 33.6849C69.2646 33.7503 69.6373 33.783 69.8919 33.783C70.4247 33.783 70.692 33.5321 70.692 33.0321C70.692 32.8302 70.6338 32.6848 70.5156 32.5975C70.3992 32.5084 70.1792 32.4338 69.8592 32.3738C69.4373 32.2829 69.1391 32.1684 68.9627 32.0247C68.7864 31.8829 68.6973 31.6429 68.6973 31.3083C68.6973 30.6373 69.0991 30.3027 69.9028 30.3027C70.1665 30.3027 70.481 30.33 70.8484 30.3846L71.032 30.4118L70.9938 30.7628C70.4938 30.701 70.1392 30.67 69.9301 30.67Z" fill="#707070"/>
<path d="M71.7559 30.7893V30.3184H72.1614V30.7893H71.7559ZM71.7559 34.1023V31.4003H72.1614V34.1023H71.7559Z" fill="#707070"/>
<path d="M73.7897 31.7056C73.3969 31.7056 73.2005 31.842 73.2005 32.1165C73.2005 32.242 73.246 32.3311 73.3351 32.3838C73.426 32.4366 73.6297 32.4893 73.9515 32.5457C74.2715 32.602 74.4988 32.6802 74.6334 32.7802C74.7661 32.8821 74.8334 33.0712 74.8334 33.3476C74.8334 33.6239 74.7443 33.8294 74.5661 33.9585C74.3879 34.0876 74.1279 34.1531 73.7861 34.1531C73.5624 34.1531 73.2987 34.1276 72.9969 34.0767L72.8351 34.0494L72.8569 33.6985C73.2678 33.7603 73.5769 33.7912 73.7861 33.7912C73.9952 33.7912 74.1552 33.7585 74.2643 33.6912C74.3734 33.6239 74.4297 33.513 74.4297 33.3566C74.4297 33.2003 74.3825 33.093 74.2897 33.0384C74.1952 32.9821 73.9897 32.9293 73.6733 32.8784C73.3569 32.8275 73.1314 32.7548 72.9969 32.6566C72.8623 32.5584 72.7969 32.3784 72.7969 32.1165C72.7969 31.8529 72.8896 31.6583 73.0751 31.5329C73.2605 31.4074 73.4915 31.3438 73.7697 31.3438C73.9897 31.3438 74.2643 31.3692 74.597 31.4201L74.7479 31.4474L74.737 31.7929C74.3352 31.7347 74.0206 31.7056 73.7897 31.7056Z" fill="#707070"/>
<path d="M76.8568 31.7486H75.9967V33.0414C75.9967 33.3505 76.0186 33.5542 76.064 33.6524C76.1095 33.7506 76.2167 33.7979 76.3859 33.7979L76.8677 33.7651L76.895 34.0997C76.6531 34.1397 76.4695 34.1597 76.344 34.1597C76.0622 34.1597 75.8676 34.0906 75.7603 33.9542C75.6531 33.8179 75.5985 33.556 75.5985 33.1705V31.7486H75.2148V31.3977H75.5985V30.5703H75.9985V31.3977H76.8586V31.7486H76.8568Z" fill="#707070"/>
<path d="M79.1908 33.7658L79.3472 33.7494L79.3581 34.0676C78.9471 34.1258 78.5962 34.1549 78.3034 34.1549C77.9143 34.1549 77.6379 34.0422 77.4761 33.8167C77.3142 33.5912 77.2324 33.2403 77.2324 32.7657C77.2324 31.8183 77.6088 31.3438 78.3616 31.3438C78.7253 31.3438 78.998 31.4456 79.178 31.6492C79.3581 31.8529 79.449 32.1729 79.449 32.6093L79.4272 32.9166H77.6434C77.6434 33.2166 77.6979 33.4367 77.8052 33.5821C77.9125 33.7276 78.1016 33.7985 78.3707 33.7985C78.6398 33.7967 78.9126 33.7858 79.1908 33.7658ZM79.0453 32.5911C79.0453 32.2602 78.9926 32.0256 78.8853 31.8893C78.7798 31.7529 78.6053 31.6838 78.3671 31.6838C78.127 31.6838 77.947 31.7565 77.827 31.9002C77.707 32.0438 77.6434 32.2747 77.6397 32.5929H79.0453V32.5911Z" fill="#707070"/>
<path d="M80.4856 34.1003H80.0801V31.3983H80.4801V31.5874C80.751 31.4256 81.0129 31.3438 81.2693 31.3438C81.6038 31.3438 81.8384 31.4365 81.9712 31.6201C82.0893 31.5474 82.2439 31.4838 82.433 31.4274C82.6221 31.371 82.7894 31.3438 82.9331 31.3438C83.2931 31.3438 83.5349 31.4401 83.6604 31.6329C83.7859 31.8256 83.8477 32.1729 83.8477 32.673V34.1003H83.4422V32.6839C83.4422 32.3093 83.4058 32.0529 83.3349 31.9129C83.264 31.7729 83.1094 31.7056 82.8749 31.7056C82.7567 31.7056 82.633 31.722 82.5076 31.7565C82.3821 31.7911 82.2839 31.8238 82.2148 31.8565L82.113 31.9056C82.1603 32.0238 82.1839 32.2875 82.1839 32.6948V34.1003H81.7784V32.7057C81.7784 32.3166 81.7439 32.0529 81.6729 31.9147C81.602 31.7765 81.4493 31.7074 81.2111 31.7074C81.0965 31.7074 80.9783 31.7238 80.8565 31.7583C80.7347 31.7929 80.6438 31.8256 80.5783 31.8583L80.4874 31.9074V34.1003H80.4856Z" fill="#707070"/>
<path d="M84.6348 34.101V30.2207H85.0403V34.101H84.6348Z" fill="#707070"/>
<path d="M87.6869 33.7658L87.8432 33.7494L87.8542 34.0676C87.4432 34.1258 87.0923 34.1549 86.7995 34.1549C86.4104 34.1549 86.134 34.0422 85.9722 33.8167C85.8103 33.5912 85.7285 33.2403 85.7285 32.7657C85.7285 31.8183 86.1049 31.3438 86.8577 31.3438C87.2214 31.3438 87.4941 31.4456 87.6741 31.6492C87.8542 31.8529 87.9451 32.1729 87.9451 32.6093L87.9233 32.9166H86.1395C86.1395 33.2166 86.194 33.4367 86.3013 33.5821C86.4086 33.7276 86.5977 33.7985 86.8668 33.7985C87.1359 33.7967 87.4087 33.7858 87.6869 33.7658ZM87.5414 32.5911C87.5414 32.2602 87.4887 32.0256 87.3814 31.8893C87.2759 31.7529 87.1014 31.6838 86.8632 31.6838C86.6231 31.6838 86.4431 31.7565 86.3231 31.9002C86.2031 32.0438 86.1395 32.2747 86.1358 32.5929H87.5414V32.5911Z" fill="#707070"/>
<path d="M88.5801 34.1019V31.3999H88.9801V31.7671C89.2929 31.5508 89.6238 31.4089 89.9693 31.3398V31.7508C89.8184 31.7799 89.6602 31.8253 89.4965 31.8853C89.3329 31.9472 89.2074 31.9999 89.1201 32.0472L88.9856 32.1181V34.1019H88.5801Z" fill="#707070"/>
<path d="M90.4492 30.7893V30.3184H90.8547V30.7893H90.4492ZM90.4492 34.1023V31.4003H90.8547V34.1023H90.4492Z" fill="#707070"/>
<path d="M0.889919 34.1276H0.142578V30.4491H0.889919V32.0656L1.38814 32.011L1.99365 30.4473H2.84281L2.04275 32.2911L2.86463 34.124H2.00456L1.38814 32.6584L0.889919 32.7129V34.1276Z" fill="#707070"/>
<path d="M3.75572 30.4512H5.19948C5.58133 30.4512 5.86863 30.5275 6.05956 30.6803C6.25049 30.833 6.34685 31.0821 6.34685 31.424C6.34685 31.6295 6.31595 31.7931 6.25412 31.9131C6.1923 32.0349 6.08865 32.1404 5.93955 32.235C6.10138 32.3041 6.22139 32.4023 6.29958 32.5332C6.37777 32.6623 6.41595 32.8441 6.41595 33.0732C6.41595 33.4296 6.31049 33.6951 6.10138 33.8678C5.89227 34.0406 5.5977 34.1278 5.21949 34.1278H3.75391V30.4512H3.75572ZM5.16312 31.0894H4.50306V31.9659H5.16857C5.45042 31.9659 5.59042 31.8204 5.59042 31.5276C5.59042 31.2349 5.44678 31.0894 5.16312 31.0894ZM5.18312 32.5932H4.50124V33.4914H5.18312C5.34495 33.4914 5.46496 33.4587 5.54315 33.3932C5.62134 33.3278 5.65952 33.2096 5.65952 33.0368C5.65952 32.7405 5.50133 32.5932 5.18312 32.5932Z" fill="#707070"/>
<path d="M8.8213 34.1297H8.07396V32.6423L6.9375 30.4512H7.76484L8.44126 31.9168L9.11769 30.4512H9.94503L8.81948 32.6423V34.1297H8.8213Z" fill="#707070"/>
<path d="M11.7901 31.0342C11.3974 31.0342 11.201 31.1633 11.201 31.4233C11.201 31.5379 11.2501 31.627 11.3465 31.6888C11.4447 31.7506 11.672 31.8379 12.0302 31.9543C12.3884 32.0706 12.6411 32.1997 12.7848 32.347C12.9284 32.4925 13.0012 32.718 13.0012 33.0198C13.0012 33.4053 12.8848 33.6981 12.6502 33.8963C12.4157 34.0945 12.1102 34.1945 11.7301 34.1945C11.4483 34.1945 11.1046 34.1508 10.6973 34.0654L10.5028 34.0272L10.5791 33.4489C11.0628 33.5144 11.4319 33.5471 11.6883 33.5471C12.0702 33.5471 12.2611 33.3889 12.2611 33.0707C12.2611 32.9562 12.2175 32.8653 12.1284 32.7998C12.0393 32.7343 11.8647 32.6652 11.601 32.5889C11.1828 32.4707 10.8882 32.3288 10.7173 32.1652C10.5464 32.0015 10.4609 31.7724 10.4609 31.4815C10.4609 31.1142 10.5719 30.8396 10.7955 30.6596C11.0192 30.4796 11.3265 30.3887 11.7156 30.3887C11.9829 30.3887 12.3211 30.425 12.732 30.4978L12.9266 30.536L12.8666 31.1251C12.3575 31.0633 11.9993 31.0342 11.7901 31.0342Z" fill="#707070"/>
<path d="M15.8715 29.8789H15.5078V35.1175H15.8715V29.8789Z" fill="#707070"/>
</svg>
