<svg width="40" height="40" viewBox="0 0 40 40" fill="none" xmlns="http://www.w3.org/2000/svg">
<path d="M20.0006 12.5006C18.5172 12.5006 17.0672 12.9404 15.8338 13.7645C14.6004 14.5886 13.6391 15.76 13.0715 17.1304C12.5038 18.5009 12.3553 20.0089 12.6447 21.4637C12.9341 22.9186 13.6484 24.255 14.6973 25.3039C15.7462 26.3528 17.0825 27.0671 18.5374 27.3565C19.9922 27.6458 21.5002 27.4973 22.8707 26.9297C24.2411 26.362 25.4125 25.4007 26.2366 24.1673C27.0607 22.934 27.5006 21.4839 27.5006 20.0006C27.4985 18.0121 26.7077 16.1056 25.3016 14.6995C23.8955 13.2935 21.989 12.5026 20.0006 12.5006ZM20.0006 25.0006C19.0117 25.0006 18.045 24.7073 17.2227 24.1579C16.4005 23.6085 15.7596 22.8276 15.3812 21.914C15.0027 21.0003 14.9037 19.995 15.0966 19.0251C15.2896 18.0552 15.7658 17.1643 16.465 16.465C17.1643 15.7658 18.0552 15.2896 19.0251 15.0966C19.995 14.9037 21.0003 15.0027 21.914 15.3812C22.8276 15.7596 23.6085 16.4005 24.1579 17.2227C24.7073 18.045 25.0006 19.0117 25.0006 20.0006C25.0006 21.3266 24.4738 22.5984 23.5361 23.5361C22.5984 24.4738 21.3266 25.0006 20.0006 25.0006ZM33.7506 20.3381C33.7568 20.1131 33.7568 19.8881 33.7506 19.6631L36.0818 16.7506C36.204 16.5976 36.2887 16.4181 36.3288 16.2265C36.369 16.0349 36.3636 15.8366 36.3131 15.6474C35.9309 14.2109 35.3592 12.8316 34.6131 11.5459C34.5154 11.3776 34.3797 11.2345 34.217 11.1279C34.0542 11.0213 33.8688 10.9541 33.6756 10.9318L29.9693 10.5193C29.8151 10.3568 29.6589 10.2006 29.5006 10.0506L29.0631 6.33493C29.0406 6.14152 28.9732 5.95603 28.8663 5.79326C28.7594 5.6305 28.616 5.49495 28.4474 5.39743C27.1612 4.65266 25.7821 4.08155 24.3459 3.699C24.1566 3.64868 23.9582 3.64353 23.7666 3.68397C23.575 3.72441 23.3955 3.80931 23.2427 3.93181L20.3381 6.25056C20.1131 6.25056 19.8881 6.25056 19.6631 6.25056L16.7506 3.924C16.5976 3.80176 16.4181 3.71715 16.2265 3.67698C16.0349 3.63682 15.8366 3.64222 15.6474 3.69275C14.2111 4.0756 12.8319 4.64725 11.5459 5.39275C11.3776 5.49044 11.2345 5.62607 11.1279 5.78882C11.0213 5.95158 10.9541 6.13697 10.9318 6.33025L10.5193 10.0427C10.3568 10.198 10.2006 10.3542 10.0506 10.5115L6.33493 10.9381C6.14152 10.9606 5.95603 11.0279 5.79326 11.1348C5.6305 11.2417 5.49495 11.3851 5.39743 11.5537C4.65266 12.8399 4.08155 14.2191 3.699 15.6552C3.64868 15.8445 3.64353 16.0429 3.68397 16.2345C3.72441 16.4262 3.80931 16.6056 3.93181 16.7584L6.25056 19.6631C6.25056 19.8881 6.25056 20.1131 6.25056 20.3381L3.924 23.2506C3.80176 23.4035 3.71715 23.583 3.67698 23.7746C3.63682 23.9662 3.64222 24.1645 3.69275 24.3537C4.07492 25.7902 4.64661 27.1695 5.39275 28.4552C5.49044 28.6235 5.62607 28.7666 5.78882 28.8732C5.95158 28.9798 6.13697 29.047 6.33025 29.0693L10.0365 29.4818C10.1917 29.6443 10.348 29.8006 10.5052 29.9506L10.9381 33.6662C10.9606 33.8596 11.0279 34.0451 11.1348 34.2079C11.2417 34.3706 11.3851 34.5062 11.5537 34.6037C12.8399 35.3485 14.2191 35.9196 15.6552 36.3021C15.8445 36.3524 16.0429 36.3576 16.2345 36.3172C16.4262 36.2767 16.6056 36.1918 16.7584 36.0693L19.6631 33.7506C19.8881 33.7568 20.1131 33.7568 20.3381 33.7506L23.2506 36.0818C23.4035 36.204 23.583 36.2887 23.7746 36.3288C23.9662 36.369 24.1645 36.3636 24.3537 36.3131C25.7902 35.9309 27.1695 35.3592 28.4552 34.6131C28.6235 34.5154 28.7666 34.3797 28.8732 34.217C28.9798 34.0542 29.047 33.8688 29.0693 33.6756L29.4818 29.9693C29.6443 29.8151 29.8006 29.6589 29.9506 29.5006L33.6662 29.0631C33.8596 29.0406 34.0451 28.9732 34.2079 28.8663C34.3706 28.7594 34.5062 28.616 34.6037 28.4474C35.3485 27.1612 35.9196 25.7821 36.3021 24.3459C36.3524 24.1566 36.3576 23.9582 36.3172 23.7666C36.2767 23.575 36.1918 23.3955 36.0693 23.2427L33.7506 20.3381ZM31.2349 19.3224C31.2615 19.7741 31.2615 20.227 31.2349 20.6787C31.2163 20.9879 31.3132 21.2931 31.5068 21.5349L33.724 24.3053C33.4696 25.1138 33.1438 25.8981 32.7506 26.649L29.2193 27.049C28.9118 27.0831 28.6279 27.2301 28.4224 27.4615C28.1217 27.7998 27.8013 28.1201 27.4631 28.4209C27.2317 28.6263 27.0847 28.9102 27.0506 29.2178L26.6584 32.7459C25.9076 33.1393 25.1232 33.4651 24.3146 33.7193L21.5427 31.5021C21.3209 31.3249 21.0454 31.2285 20.7615 31.2287H20.6865C20.2348 31.2552 19.7819 31.2552 19.3302 31.2287C19.021 31.2101 18.7159 31.307 18.474 31.5006L15.6959 33.7193C14.8873 33.4649 14.103 33.1391 13.3521 32.7459L12.9521 29.2193C12.918 28.9118 12.771 28.6279 12.5396 28.4224C12.2014 28.1217 11.881 27.8013 11.5802 27.4631C11.3748 27.2317 11.0909 27.0847 10.7834 27.0506L7.25525 26.6568C6.8618 25.906 6.53603 25.1217 6.28181 24.3131L8.499 21.5412C8.6926 21.2993 8.78949 20.9942 8.77087 20.6849C8.74431 20.2332 8.74431 19.7804 8.77087 19.3287C8.78949 19.0194 8.6926 18.7143 8.499 18.4724L6.28181 15.6959C6.53622 14.8873 6.86198 14.103 7.25525 13.3521L10.7818 12.9521C11.0893 12.918 11.3733 12.771 11.5787 12.5396C11.8795 12.2014 12.1998 11.881 12.5381 11.5802C12.7704 11.3747 12.9179 11.0901 12.9521 10.7818L13.3443 7.25525C14.0951 6.8618 14.8794 6.53603 15.6881 6.28181L18.4599 8.499C18.7018 8.6926 19.0069 8.78949 19.3162 8.77087C19.7679 8.74431 20.2207 8.74431 20.6724 8.77087C20.9817 8.78949 21.2868 8.6926 21.5287 8.499L24.3053 6.28181C25.1138 6.53622 25.8981 6.86198 26.649 7.25525L27.049 10.7818C27.0831 11.0893 27.2301 11.3733 27.4615 11.5787C27.7998 11.8795 28.1201 12.1998 28.4209 12.5381C28.6263 12.7694 28.9102 12.9164 29.2178 12.9506L32.7459 13.3427C33.1393 14.0935 33.4651 14.8779 33.7193 15.6865L31.5021 18.4584C31.3067 18.7023 31.2097 19.0106 31.2302 19.3224H31.2349Z" fill="#FF6634"/>
</svg>
