<svg width="40" height="40" viewBox="0 0 40 40" fill="none" xmlns="http://www.w3.org/2000/svg">
<path d="M36.25 9.99943C36.2495 9.06437 35.9869 8.14818 35.4918 7.35491C34.9968 6.56163 34.2893 5.92307 33.4495 5.51173C32.6098 5.10039 31.6716 4.93277 30.7413 5.0279C29.8111 5.12302 28.9262 5.47709 28.1872 6.04988C27.4481 6.62267 26.8844 7.39124 26.5602 8.26829C26.236 9.14534 26.1642 10.0957 26.353 11.0115C26.5418 11.9273 26.9836 12.7718 27.6283 13.4492C28.273 14.1265 29.0946 14.6094 30 14.8432V17.4994C30 17.831 29.8683 18.1489 29.6339 18.3833C29.3995 18.6177 29.0815 18.7494 28.75 18.7494H15C14.5741 18.7493 14.1513 18.8222 13.75 18.9651V14.8432C14.9283 14.5389 15.9552 13.8154 16.6383 12.8082C17.3213 11.801 17.6135 10.5792 17.4602 9.37193C17.3068 8.16467 16.7184 7.05477 15.8053 6.25028C14.8922 5.4458 13.717 5.00196 12.5 5.00196C11.283 5.00196 10.1079 5.4458 9.19472 6.25028C8.28159 7.05477 7.69321 8.16467 7.53986 9.37193C7.38652 10.5792 7.67874 11.801 8.36176 12.8082C9.04478 13.8154 10.0717 14.5389 11.25 14.8432V25.1557C10.0717 25.4599 9.04478 26.1835 8.36176 27.1907C7.67874 28.1979 7.38652 29.4197 7.53986 30.6269C7.69321 31.8342 8.28159 32.9441 9.19472 33.7486C10.1079 34.5531 11.283 34.9969 12.5 34.9969C13.717 34.9969 14.8922 34.5531 15.8053 33.7486C16.7184 32.9441 17.3068 31.8342 17.4602 30.6269C17.6135 29.4197 17.3213 28.1979 16.6383 27.1907C15.9552 26.1835 14.9283 25.4599 13.75 25.1557V22.4994C13.75 22.1679 13.8817 21.85 14.1161 21.6155C14.3505 21.3811 14.6685 21.2494 15 21.2494H28.75C29.7446 21.2494 30.6984 20.8543 31.4017 20.1511C32.1049 19.4478 32.5 18.494 32.5 17.4994V14.8432C33.5729 14.5645 34.5231 13.9378 35.2017 13.0613C35.8803 12.1848 36.249 11.1079 36.25 9.99943ZM10 9.99943C10 9.50498 10.1466 9.02163 10.4213 8.61051C10.696 8.19939 11.0865 7.87895 11.5433 7.68974C12.0001 7.50052 12.5028 7.45101 12.9877 7.54747C13.4727 7.64393 13.9181 7.88204 14.2678 8.23167C14.6174 8.5813 14.8555 9.02676 14.952 9.51171C15.0484 9.99666 14.9989 10.4993 14.8097 10.9561C14.6205 11.413 14.3001 11.8034 13.8889 12.0781C13.4778 12.3528 12.9945 12.4994 12.5 12.4994C11.837 12.4994 11.2011 12.236 10.7322 11.7672C10.2634 11.2984 10 10.6625 10 9.99943ZM15 29.9994C15 30.4939 14.8534 30.9772 14.5787 31.3884C14.304 31.7995 13.9135 32.1199 13.4567 32.3091C12.9999 32.4984 12.4972 32.5479 12.0123 32.4514C11.5273 32.3549 11.0819 32.1168 10.7322 31.7672C10.3826 31.4176 10.1445 30.9721 10.048 30.4872C9.95159 30.0022 10.0011 29.4995 10.1903 29.0427C10.3795 28.5859 10.7 28.1955 11.1111 27.9208C11.5222 27.6461 12.0056 27.4994 12.5 27.4994C13.1631 27.4994 13.7989 27.7628 14.2678 28.2317C14.7366 28.7005 15 29.3364 15 29.9994ZM31.25 12.4994C30.7556 12.4994 30.2722 12.3528 29.8611 12.0781C29.45 11.8034 29.1295 11.413 28.9403 10.9561C28.7511 10.4993 28.7016 9.99666 28.798 9.51171C28.8945 9.02676 29.1326 8.5813 29.4822 8.23167C29.8319 7.88204 30.2773 7.64393 30.7623 7.54747C31.2472 7.45101 31.7499 7.50052 32.2067 7.68974C32.6635 7.87895 33.054 8.19939 33.3287 8.61051C33.6034 9.02163 33.75 9.50498 33.75 9.99943C33.75 10.6625 33.4866 11.2984 33.0178 11.7672C32.5489 12.236 31.9131 12.4994 31.25 12.4994Z" fill="#FF6634"/>
</svg>
