<svg width="40" height="40" viewBox="0 0 40 40" fill="none" xmlns="http://www.w3.org/2000/svg">
<path d="M39.735 16.8597L35.7475 8.88162C35.6006 8.58797 35.3973 8.32614 35.1493 8.11107C34.9012 7.896 34.6131 7.73191 34.3016 7.62817C33.9901 7.52442 33.6612 7.48306 33.3337 7.50644C33.0062 7.52982 32.6865 7.61749 32.3929 7.76443L28.5069 9.70662L20.321 7.54099C20.1109 7.48634 19.8904 7.48634 19.6804 7.54099L11.4944 9.70662L7.60848 7.76443C7.31485 7.61749 6.99516 7.52982 6.66766 7.50644C6.34015 7.48306 6.01125 7.52442 5.69973 7.62817C5.38821 7.73191 5.10018 7.896 4.85208 8.11107C4.60399 8.32614 4.40068 8.58797 4.25379 8.88162L0.266289 16.8582C0.119345 17.1518 0.0316801 17.4715 0.00829964 17.799C-0.0150809 18.1265 0.0262814 18.4554 0.130024 18.7669C0.233767 19.0784 0.397858 19.3665 0.612927 19.6146C0.827996 19.8627 1.08983 20.066 1.38348 20.2129L5.60223 22.3238L14.2725 28.516C14.4003 28.6069 14.5439 28.6731 14.696 28.7113L24.696 31.2113C24.9054 31.2638 25.1249 31.2612 25.333 31.2037C25.5411 31.1462 25.7307 31.0358 25.8835 30.8832L34.4882 22.2769L38.6163 20.2129C39.2089 19.9162 39.6595 19.3963 39.869 18.7676C40.0785 18.1388 40.0298 17.4526 39.7335 16.8597H39.735ZM31.1585 22.0738L25.7819 17.7676C25.5411 17.5747 25.2373 17.4777 24.9293 17.4953C24.6212 17.5129 24.3305 17.6438 24.1132 17.8629C21.3304 20.666 18.2288 20.3113 16.2507 19.0613L23.0069 12.4988H27.9772L32.2288 21.0004L31.1585 22.0738ZM6.48973 9.99881L9.68816 11.5957L5.69285 19.5722L2.50066 17.9769L6.48973 9.99881ZM24.6147 28.6129L15.535 26.3441L7.84754 20.8535L12.2225 12.1035L20.0007 10.0426L21.5319 10.4472L14.5007 17.2722L14.4882 17.2863C14.2235 17.551 14.0216 17.8717 13.8975 18.2248C13.7733 18.578 13.73 18.9545 13.7708 19.3265C13.8116 19.6986 13.9354 20.0568 14.1331 20.3746C14.3309 20.6924 14.5974 20.9618 14.9132 21.1629C18.1257 23.2144 22.0022 22.8816 25.0554 20.3816L29.3757 23.8519L24.6147 28.6129ZM34.3022 19.5707L30.3147 11.6019L33.5116 9.99881L37.5007 17.9769L34.3022 19.5707ZM20.5913 34.0504C20.5238 34.3205 20.3679 34.5604 20.1486 34.732C19.9292 34.9035 19.6588 34.9969 19.3804 34.9972C19.2776 34.9971 19.1753 34.9845 19.0757 34.9597L12.5647 33.3316C12.4124 33.294 12.2687 33.2278 12.1413 33.1363L8.0241 30.1957C7.77095 29.9969 7.60422 29.7082 7.55864 29.3895C7.51306 29.0709 7.59213 28.747 7.7794 28.4852C7.96667 28.2235 8.2477 28.044 8.56396 27.9843C8.88023 27.9245 9.20736 27.989 9.47723 28.1644L13.4007 30.9676L19.6882 32.5363C20.0097 32.6167 20.2861 32.8216 20.4567 33.1058C20.6272 33.39 20.6779 33.7304 20.5975 34.0519L20.5913 34.0504Z" fill="#FF6634"/>
</svg>
