<svg width="132" height="27" viewBox="0 0 132 27" fill="none" xmlns="http://www.w3.org/2000/svg">
<path d="M0.0138033 4.82011L0 12.2711C0 12.5803 0.361647 12.8288 0.659799 12.7487L6.46271 11.1089C6.72222 11.0371 6.90442 10.8025 6.90442 10.5319L6.91822 3.00911C6.91822 2.70268 6.62559 2.48183 6.3302 2.56741L0.447228 4.24589C0.190486 4.32043 0.0138033 4.55232 0.0110427 4.82011H0.0138033Z" fill="#707070"/>
<path d="M15.4493 9.95311L15.4355 17.2026C15.4355 17.5035 15.8193 17.6719 16.1174 17.5919L21.8872 16.0238C22.1467 15.9548 22.3317 15.7726 22.3317 15.5103L22.3455 8.1918C22.3455 7.89365 22.0529 7.68108 21.7575 7.76114L15.8966 9.36509C15.6398 9.43686 15.4493 9.69361 15.4493 9.95311Z" fill="#707070"/>
<path d="M7.71693 12.0308L7.70312 19.25C7.70312 19.5481 8.04821 19.7717 8.34912 19.6917L14.1934 18.1015C14.4557 18.0325 14.6352 17.8255 14.6352 17.566L14.649 10.2778C14.649 9.98243 14.3536 9.7671 14.0582 9.84992L8.15311 11.476C7.89361 11.5477 7.71693 11.7741 7.71693 12.0308Z" fill="#707070"/>
<path d="M15.4434 19.0511L15.4572 26.5077C15.4572 26.8169 15.7912 27.0515 16.0894 26.9687L21.8895 25.3317C22.149 25.2599 22.3312 25.0252 22.3312 24.7547L22.345 17.2429C22.345 16.9392 22.1021 16.7681 21.8067 16.8509L15.8795 18.4769C15.6228 18.5515 15.4461 18.7834 15.4434 19.0511Z" fill="#707070"/>
<path d="M23.1329 7.83108L23.1191 15.0199C23.1191 15.318 23.4808 15.5582 23.7817 15.4781L29.6536 13.9073C29.9131 13.8383 30.0374 13.6009 30.0374 13.3414L30.0512 6.08358C30.0512 5.78819 29.7585 5.57562 29.4631 5.65568L23.5691 7.27343C23.3124 7.34521 23.1329 7.56882 23.1329 7.82832V7.83108Z" fill="#707070"/>
<path d="M7.70912 2.64261L7.69531 10.124C7.69531 10.4332 8.02659 10.6844 8.3275 10.6016L14.2408 8.9949C14.5031 8.92312 14.6439 8.64429 14.6439 8.37651L14.6577 0.823333C14.6577 0.5169 14.3623 0.296047 14.0669 0.378867L8.1453 2.06287C7.8858 2.13741 7.70912 2.37207 7.70912 2.63985V2.64261Z" fill="#707070"/>
<path d="M43.3709 19.5222V5.25023H38.248V3.14453H50.8116V5.25023H45.6887V19.5222H43.3734H43.3709Z" fill="#707070"/>
<path d="M51.6074 19.5239V7.8256H53.8301V19.5239H51.6074ZM52.9649 13.2312C52.9649 11.9688 53.2062 10.9378 53.6912 10.1433C54.1737 9.34882 54.7977 8.75416 55.5629 8.36421C56.3257 7.97427 57.13 7.7793 57.9733 7.7793V9.88499C57.2714 9.88499 56.6036 9.98979 55.9724 10.2018C55.3411 10.4114 54.8269 10.7551 54.4272 11.2303C54.0299 11.7055 53.8301 12.349 53.8301 13.1605L52.9649 13.2312Z" fill="#707070"/>
<path d="M63.5143 19.8033C62.1251 19.8033 61.0455 19.4865 60.2729 18.8553C59.5003 18.224 59.1152 17.3467 59.1152 16.2231C59.1152 15.0216 59.5174 14.1052 60.3192 13.474C61.1234 12.8428 62.2421 12.526 63.6776 12.526H66.9287V14.2807H64.2844C63.2072 14.2807 62.4517 14.4489 62.0154 14.7828C61.5792 15.1191 61.3599 15.5822 61.3599 16.1744C61.3599 16.7203 61.567 17.1444 61.9789 17.449C62.3908 17.7537 62.9659 17.9048 63.6995 17.9048C64.338 17.9048 64.8937 17.7683 65.3617 17.4953C65.8296 17.2224 66.1952 16.8373 66.4608 16.3377C66.7265 15.8381 66.8581 15.2702 66.8581 14.6292H67.6306C67.6306 16.2207 67.2919 17.4807 66.6119 18.4068C65.9319 19.3329 64.901 19.7984 63.5119 19.7984L63.5143 19.8033ZM66.9531 19.523L66.8605 17.488V13.418C66.8605 12.5601 66.763 11.8436 66.568 11.266C66.3731 10.6884 66.0757 10.2521 65.6785 9.95478C65.2812 9.65988 64.7548 9.51122 64.0992 9.51122C63.4899 9.51122 62.9635 9.63551 62.5199 9.88654C62.0764 10.1351 61.7035 10.5251 61.4086 11.0564L59.4443 10.3082C59.7245 9.7793 60.0755 9.3065 60.4971 8.89218C60.9187 8.47787 61.4257 8.15129 62.0179 7.91001C62.6101 7.66873 63.3047 7.54688 64.0992 7.54688C65.2057 7.54688 66.1269 7.76622 66.8605 8.20247C67.5941 8.63872 68.1424 9.26994 68.5105 10.0986C68.876 10.9248 69.0515 11.9459 69.0369 13.1645L69.0125 19.5279H66.9531V19.523Z" fill="#707070"/>
<path d="M76.4761 19.8018C75.416 19.8018 74.4923 19.5435 73.7026 19.0293C72.9154 18.515 72.2988 17.7961 71.8553 16.8773C71.4117 15.956 71.1875 14.8885 71.1875 13.6724C71.1875 12.4563 71.4093 11.3669 71.8553 10.4554C72.3013 9.54387 72.9154 8.82978 73.7026 8.31555C74.4898 7.80131 75.4135 7.54297 76.4761 7.54297C77.4583 7.54297 78.3137 7.80131 79.0376 8.31555C79.7638 8.82978 80.3195 9.54387 80.7094 10.4554C81.0994 11.3669 81.2944 12.4416 81.2944 13.6724C81.2944 14.9032 81.0994 15.9585 80.7094 16.8773C80.3195 17.7985 79.7614 18.515 79.0376 19.0293C78.3113 19.5435 77.4583 19.8018 76.4761 19.8018ZM76.9904 17.7912C77.6459 17.7912 78.2211 17.6157 78.7207 17.2648C79.2203 16.9138 79.6103 16.4313 79.8906 15.8147C80.1708 15.1981 80.3122 14.484 80.3122 13.6748C80.3122 12.8657 80.1708 12.1516 79.8906 11.535C79.6103 10.9184 79.2203 10.4359 78.7207 10.0849C78.2211 9.73397 77.6362 9.55849 76.966 9.55849C76.2958 9.55849 75.6719 9.73397 75.1406 10.0849C74.6093 10.4359 74.1974 10.9184 73.9 11.535C73.6027 12.1516 73.4565 12.8657 73.4565 13.6748C73.4565 14.484 73.6076 15.2005 73.9122 15.8147C74.2169 16.4313 74.6336 16.9138 75.1649 17.2648C75.6938 17.6157 76.3031 17.7912 76.9904 17.7912ZM80.3122 24.2009V9.99962L80.4292 7.82324H82.5105V24.2009H80.3122Z" fill="#707070"/>
<path d="M85.1562 13.8147V7.82422H87.3789V13.8147H85.1562ZM87.3789 13.8147C87.3789 14.8603 87.5008 15.6621 87.7421 16.2251C87.9833 16.7856 88.3221 17.1756 88.7608 17.3949C89.197 17.6143 89.6893 17.7312 90.2353 17.7459C91.1858 17.7459 91.9267 17.4095 92.458 16.7393C92.9868 16.0691 93.2525 15.1259 93.2525 13.9073H94.2127C94.2127 15.1405 94.0299 16.1958 93.6619 17.0781C93.2963 17.9603 92.7772 18.633 92.107 19.1009C91.4368 19.5688 90.6179 19.8028 89.6504 19.8028C88.7462 19.8028 87.9541 19.6152 87.2766 19.2423C86.599 18.8694 86.0751 18.282 85.7095 17.4875C85.3439 16.693 85.1587 15.6621 85.1587 14.3997V13.8147H87.3814H87.3789ZM93.3914 19.5225L93.25 17.3705V7.82422H95.4483V19.5225H93.3889H93.3914Z" fill="#707070"/>
<path d="M103.733 19.8028C102.595 19.8028 101.588 19.542 100.716 19.018C99.8433 18.4965 99.156 17.7751 98.6564 16.8539C98.1568 15.9326 97.9082 14.8724 97.9082 13.6709C97.9082 12.4694 98.1568 11.4093 98.6564 10.488C99.156 9.56677 99.8457 8.84538 100.728 8.32382C101.61 7.80227 102.619 7.53906 103.757 7.53906C104.835 7.53906 105.778 7.80715 106.589 8.34576C107.401 8.88437 108.037 9.6472 108.495 10.6391C108.956 11.6286 109.185 12.796 109.185 14.1364H99.7336L100.155 13.7855C100.155 14.6117 100.319 15.3306 100.648 15.9375C100.974 16.5468 101.42 17.0098 101.981 17.3291C102.541 17.6484 103.182 17.8092 103.899 17.8092C104.679 17.8092 105.329 17.6264 105.853 17.2584C106.375 16.8928 106.784 16.4274 107.082 15.8668L109 16.7564C108.688 17.3657 108.281 17.8994 107.784 18.36C107.284 18.8206 106.697 19.174 106.017 19.425C105.339 19.6736 104.579 19.8004 103.735 19.8004L103.733 19.8028ZM100.294 12.7375L99.8506 12.3866H107.245L106.823 12.7375C106.823 12.0502 106.682 11.4629 106.402 10.9706C106.121 10.4783 105.746 10.1054 105.278 9.84704C104.81 9.58871 104.289 9.46197 103.711 9.46197C103.133 9.46197 102.607 9.59114 102.085 9.84704C101.561 10.1054 101.135 10.4758 100.799 10.9584C100.462 11.4409 100.297 12.0356 100.297 12.7375H100.294Z" fill="#707070"/>
<path d="M111.381 19.5216V7.82324H113.462L113.604 9.97525V19.5216H111.381ZM119.477 13.531C119.477 12.4709 119.355 11.6642 119.114 11.1085C118.873 10.5553 118.536 10.1678 118.107 9.95087C117.678 9.73153 117.184 9.61455 116.621 9.59992C115.67 9.59992 114.927 9.93625 114.398 10.6065C113.867 11.2767 113.604 12.2199 113.604 13.4384H112.643C112.643 12.2077 112.826 11.15 113.194 10.2677C113.56 9.38545 114.084 8.7128 114.761 8.24487C115.439 7.77694 116.248 7.54297 117.184 7.54297C118.12 7.54297 118.904 7.73063 119.582 8.10351C120.259 8.47883 120.783 9.05888 121.149 9.84608C121.515 10.6333 121.7 11.6666 121.7 12.9461V13.531H119.477ZM119.477 19.5216V13.531H121.7V19.5216H119.477Z" fill="#707070"/>
<path d="M123.363 9.74272V7.82468H130.897V9.74272H123.363ZM129.025 19.8033C127.855 19.8033 126.951 19.5035 126.31 18.9015C125.671 18.302 125.35 17.4392 125.35 16.3157V4.17383H127.572V15.9891C127.572 16.5667 127.716 17.0079 128.006 17.3101C128.294 17.6147 128.71 17.7658 129.259 17.7658C129.415 17.7658 129.585 17.7341 129.773 17.6732C129.961 17.6123 130.187 17.4855 130.451 17.2979L131.294 19.0283C130.887 19.2939 130.502 19.4889 130.136 19.6132C129.771 19.7375 129.4 19.8008 129.025 19.8008V19.8033Z" fill="#707070"/>
</svg>
